<svg width="16" height="17" viewBox="0 0 16 17" fill="none" xmlns="http://www.w3.org/2000/svg">
<mask id="mask0_51_25" style="mask-type:alpha" maskUnits="userSpaceOnUse" x="0" y="0" width="16" height="17">
<rect y="0.5" width="16" height="16" fill="#D9D9D9"/>
</mask>
<g mask="url(#mask0_51_25)">
<path d="M13.2 14.4888L8.87783 10.1666C8.5445 10.448 8.15761 10.6684 7.71717 10.8278C7.27672 10.987 6.80806 11.0666 6.31117 11.0666C5.10628 11.0666 4.0865 10.649 3.25183 9.81377C2.41728 8.97866 2 7.96666 2 6.77777C2 5.58888 2.41761 4.57682 3.25283 3.7416C4.08794 2.90638 5.10183 2.48877 6.2945 2.48877C7.48706 2.48877 8.49906 2.90638 9.3305 3.7416C10.1621 4.57682 10.5778 5.58944 10.5778 6.77944C10.5778 7.25977 10.5001 7.72033 10.3445 8.1611C10.1889 8.60177 9.963 9.00733 9.66667 9.37777L14 13.6888L13.2 14.4888ZM6.3 9.95544C7.17967 9.95544 7.92733 9.64527 8.543 9.02494C9.15878 8.4046 9.46667 7.65555 9.46667 6.77777C9.46667 5.89999 9.15878 5.15088 8.543 4.53044C7.92733 3.9101 7.17967 3.59994 6.3 3.59994C5.41422 3.59994 4.66128 3.9101 4.04117 4.53044C3.42117 5.15088 3.11117 5.89999 3.11117 6.77777C3.11117 7.65555 3.42117 8.4046 4.04117 9.02494C4.66128 9.64527 5.41422 9.95544 6.3 9.95544Z" fill="#1C1B1F" fill-opacity="0.5"/>
</g>
</svg>
