<svg width="24" height="25" viewBox="0 0 24 25" fill="none" xmlns="http://www.w3.org/2000/svg">
<g clip-path="url(#clip0_6_94)">
<path d="M23.8909 15.783C23.8469 14.7898 23.3656 14.0706 22.4005 13.7152C22.1306 13.6158 21.855 13.514 21.573 13.4676C19.9227 13.1965 18.2716 12.9289 16.6167 12.6881C16.0357 12.6035 15.6267 12.3033 15.3402 11.8374C14.7086 10.8103 14.4697 9.67995 14.6574 8.49921C14.9116 6.90073 16.0699 6.14437 17.6703 6.51201C18.1668 6.62613 18.687 6.79019 19.1026 7.06837C20.1711 7.78361 21.1862 8.57701 22.2249 9.33608C22.5609 9.58173 22.9017 9.98985 23.3475 9.73631C23.7919 9.48359 23.7086 8.95953 23.6353 8.53939C23.0091 4.94708 21.1648 2.308 17.5744 1.06594C14.2699 -0.0772467 10.9183 -0.150236 7.56052 0.763628C5.07206 1.44088 2.97788 2.70168 1.74257 5.06775C1.11713 6.26555 0.597366 7.50157 0.552713 8.86919C0.543134 9.16348 0.667514 9.61586 0.872798 9.71991C1.07889 9.82433 1.50877 9.651 1.75966 9.48184C2.27317 9.1357 2.72507 8.70163 3.21551 8.3202C4.25984 7.50798 5.32782 6.73441 6.67071 6.46381C7.87324 6.22144 8.71221 6.62518 9.27118 7.70252C9.66038 8.45291 9.67467 9.24872 9.50851 10.0391C9.22343 11.3943 8.91145 12.6498 6.84689 12.831C5.3962 12.9584 3.95177 13.2118 2.52119 13.492C0.925629 13.8044 0.277503 14.6322 0.289218 16.1527C0.296145 16.2783 0.303071 16.404 0.309924 16.5297C0.442187 17.7668 0.714819 18.5923 0.899398 19.0531C0.994745 19.2912 1.12097 19.558 1.39765 19.7434C1.7142 19.9554 2.13096 20.0005 2.5948 19.8854C2.96167 19.7943 3.31528 19.6506 3.67405 19.5284C4.11873 19.3771 4.5531 19.183 5.00847 19.078C6.6475 18.7 6.88727 21.6666 6.9793 23.3138C6.99735 23.6368 7.08799 23.9688 7.21141 24.2701C7.41979 24.779 7.97183 24.9876 8.45505 24.7166C8.77727 24.5358 9.06243 24.2689 9.319 23.9985C10.4477 22.8092 13.1988 22.7816 14.3585 23.944C14.5615 24.1475 14.7506 24.3683 14.9737 24.5476C15.641 25.0843 16.4149 24.839 16.6351 24.0138C16.7156 23.7124 16.7358 23.3918 16.7543 23.0782C16.8074 22.1792 16.877 19.3461 17.7598 19.1394C18.2448 19.0258 18.7991 19.0096 19.2816 19.1213C20.0752 19.3049 20.8262 19.6614 21.6129 19.883C22.4023 20.1053 23.0324 19.7724 23.3275 19.008C23.7271 17.9726 23.9402 16.894 23.8909 15.783ZM9.35621 21.3032C9.33786 21.9304 9.23581 22.9292 9.08166 22.9331C8.90828 22.9376 8.68067 21.6832 8.7156 20.4882C8.73394 19.8609 8.836 18.8621 8.99014 18.8582C9.16352 18.8537 9.39121 20.1081 9.35621 21.3032ZM12.4629 20.2165C12.4395 20.8437 12.3092 21.8425 12.1123 21.8465C11.8909 21.8509 11.6002 20.5965 11.6449 19.4015C11.6683 18.7743 11.7987 17.7754 11.9955 17.7715C12.2168 17.7671 12.5075 19.0215 12.4629 20.2165ZM13.1207 16.5063C12.4459 16.2502 11.8221 16.2139 11.1372 16.4828C10.0901 16.8937 9.31038 16.3205 9.326 15.208C9.33956 14.3263 9.61521 13.5298 10.0787 12.7796C10.4746 12.1388 10.8263 11.4714 11.2002 10.8172C11.2898 10.6604 11.3757 10.4985 11.4876 10.3579C11.8365 9.91934 12.4328 9.89914 12.717 10.3794C13.3842 11.5066 14.0332 12.6482 14.6076 13.8231C14.8165 14.2505 14.8473 14.7873 14.8642 15.2773C14.8992 16.2966 14.0865 16.8727 13.1207 16.5063ZM15.2127 21.3937C15.1944 22.021 15.0923 23.0198 14.9382 23.0237C14.7648 23.0281 14.5372 21.7738 14.5721 20.5787C14.5904 19.9515 14.6925 18.9527 14.8466 18.9488C15.02 18.9443 15.2477 20.1986 15.2127 21.3937Z" fill="black"/>
</g>
<defs>
<clipPath id="clip0_6_94">
<rect width="24" height="25" fill="white"/>
</clipPath>
</defs>
</svg>
