<svg width="34" height="59" viewBox="0 0 34 59" fill="none" xmlns="http://www.w3.org/2000/svg">
<path d="M27.6992 0.115292C25.5065 0.498859 23.5944 1.32897 21.0411 3.00637C19.3694 4.10555 18.9973 4.4147 17.4802 5.94898C16.7074 6.72757 15.8658 7.53478 15.6082 7.74088C15.0071 8.22177 14.2914 8.64541 13.5014 8.98318L12.8717 9.25225L12.5854 9.75032C11.8412 11.0499 11.2172 11.6109 9.69434 12.3838C8.47493 13.0021 7.79939 13.4314 7.12958 14.0211C5.7785 15.1947 4.72511 16.9122 4.29002 18.6411C3.95225 19.975 3.84348 20.9826 3.8492 22.6027C3.86065 24.8526 4.15262 26.427 4.95411 28.5509C5.11441 28.9688 5.25181 29.3009 5.26326 29.2894C5.27471 29.2837 5.23463 28.9517 5.17166 28.5624C4.85106 26.49 4.75946 24.0454 4.96556 22.9233C5.18883 21.6982 5.60675 20.5361 6.40824 18.9102C7.38147 16.9408 8.29173 15.8302 9.40809 15.2462C9.69434 15.0974 9.77449 15.0802 10.2955 15.0802C10.6218 15.0802 10.9366 15.1088 11.0282 15.1489L11.1828 15.2233V19.5685C11.1828 23.4787 11.1714 23.9138 11.0912 23.9481C10.8794 24.0283 10.4042 23.9767 10.1237 23.8451C9.72296 23.6504 9.67716 23.6046 8.86995 22.5856C8.47493 22.0875 8.14861 21.6925 8.14861 21.7097C8.14861 21.7268 8.26311 22.0303 8.40051 22.3909C9.19055 24.4347 9.51687 26.7419 9.26497 28.5166C9.07605 29.8619 8.70393 31.0527 8.19441 31.9515C8.03984 32.2206 7.77077 32.5526 7.43872 32.8904C6.80898 33.5144 6.19069 33.8579 5.32623 34.0583L4.78236 34.1842L4.74801 34.7396C4.73084 35.043 4.68504 37.041 4.65069 39.1821C4.58199 43.3785 4.59917 43.9051 4.89114 46.4069C5.31478 50.0651 5.85292 51.9086 6.975 53.5802C7.34712 54.1356 7.91962 54.8855 7.91962 54.8283C7.91962 54.8054 7.78222 54.4733 7.61047 54.084C7.06088 52.8131 6.71738 51.6452 6.50556 50.317C6.35099 49.3209 6.36816 47.1741 6.53419 45.9089C6.9979 42.4796 7.91962 39.8004 9.52259 37.2299C9.93478 36.5773 11.0912 34.9743 11.1599 34.9743C11.1714 34.9743 11.1828 39.2107 11.1828 44.386V53.7978L10.6275 54.1585C9.09895 55.1489 7.69634 55.8931 5.54378 56.8434C4.16407 57.456 2.00006 58.3777 1.13559 58.7155C0.631801 58.9159 0.408529 59.0361 0.626076 58.9903C0.683325 58.9788 1.33597 58.8472 2.07448 58.6983C9.202 57.2957 15.3964 54.6909 22.0888 50.2884C23.1593 49.5843 23.8864 49.0404 24.7795 48.2618C25.6897 47.4718 26.5199 46.8363 27.8709 45.8917C29.4109 44.8097 30.1151 44.1341 30.6819 43.1953C31.0196 42.6399 31.2944 41.9358 31.4547 41.2144C31.615 40.4816 31.5979 40.4473 31.283 40.9396C31.0139 41.3576 30.1724 42.3022 30.0693 42.3022C30.0407 42.3022 30.0178 39.7489 30.0178 36.52C30.0178 31.9344 30.035 30.7378 30.0922 30.7378C30.2353 30.7436 30.7964 31.1787 31.0082 31.4535C31.2773 31.8084 31.7982 32.8675 31.9585 33.3828C32.3707 34.751 32.3421 37.0352 31.8841 39.1535C31.8383 39.3596 31.8097 39.5313 31.8154 39.5428C31.844 39.5714 32.3364 38.415 32.531 37.8711C32.7715 37.1955 32.9661 36.4112 33.1207 35.5124C33.2237 34.9113 33.2466 34.5392 33.2466 33.5144C33.2524 32.4038 33.2352 32.1863 33.1207 31.6538C32.6684 29.5871 31.6723 27.8468 30.0464 26.2839C28.9129 25.1847 27.4988 24.2744 26.0504 23.6962L25.7126 23.5645L25.747 23.2726C25.9073 22.0074 25.9474 19.7746 25.8329 18.4465C25.7642 17.582 25.5466 16.1279 25.3577 15.2806L25.226 14.6795L25.1917 15.0516C25.1745 15.2577 25.1287 15.9962 25.0944 16.6946C25.0028 18.5724 24.8196 19.1334 24.0238 19.9807C23.1364 20.9196 22.0602 21.0284 20.9381 20.2842C20.4973 19.9922 19.6099 19.1334 19.2607 18.664C18.0699 17.0496 17.5947 14.4104 18.0756 12.1319C18.4248 10.4659 19.358 8.19314 20.3141 6.65887C21.7625 4.35173 23.9379 2.42243 26.5542 1.14005C27.6419 0.60191 28.1057 0.441612 29.1819 0.22979L29.9892 0.0694923L29.6743 0.035141C29.1304 -0.0335579 28.3518 0.000793457 27.6992 0.115292ZM14.5204 15.7901C15.0529 16.3397 15.3849 16.7977 15.7055 17.4503C16.5013 19.0476 16.4326 20.5418 15.5051 21.9501C15.1559 22.4711 14.4746 23.1638 13.9365 23.5187C13.593 23.7535 12.74 24.1828 12.6999 24.1427C12.6885 24.1313 12.8488 23.908 13.0491 23.6447C13.9823 22.4024 14.3888 21.0856 14.3888 19.288C14.3888 17.9026 14.1025 16.4485 13.5529 15.0287C13.4785 14.8398 13.9823 15.2348 14.5204 15.7901ZM12.3793 16.5687C12.6713 17.5019 12.6885 19.7517 12.4194 20.9025C12.3392 21.2459 12.2476 21.5665 12.219 21.6181C12.179 21.6925 12.1618 20.8624 12.1561 18.9274C12.1561 17.1297 12.1732 16.1451 12.2133 16.1679C12.2419 16.1851 12.3163 16.3683 12.3793 16.5687ZM15.8429 30.7378C16.1291 32.026 16.1864 32.5584 16.1864 34.0984L16.1921 35.5468L16.3238 35.1861C16.6616 34.2644 16.8333 33.8579 17.2169 33.1137C17.6348 32.3007 18.2187 31.339 18.2645 31.3905C18.2817 31.4019 18.1901 31.734 18.0642 32.1233C17.6577 33.3713 17.2913 34.751 16.8791 36.5429C16.8161 36.8406 17.1997 36.1021 18.2416 33.9438C18.5565 33.2797 18.9572 32.5641 19.2149 32.1805C19.65 31.5451 20.2396 30.7779 20.4228 30.6291C20.5488 30.526 20.543 30.5718 20.377 31.6538C19.9992 34.0583 19.3923 36.1994 18.4535 38.4951C18.1443 39.2451 17.1138 41.3232 16.8333 41.7755L16.6787 42.0159L17.0394 42.4625C17.7665 43.3613 18.0527 44.0654 18.0527 44.9757C18.0527 45.8344 17.881 46.344 17.2741 47.2714C16.6329 48.2561 15.1044 50.2025 14.1769 51.2101C13.6789 51.754 12.385 52.9104 12.2419 52.9391C12.1675 52.9562 12.1561 51.8055 12.1561 43.4071V33.8522L12.4652 33.5488C12.8316 33.1881 12.803 33.1652 13.0606 34.0411C13.5415 35.6384 13.7018 36.7948 13.7018 38.5409C13.7018 39.8462 13.6445 40.4587 13.4098 41.6037C13.3468 41.93 13.3068 42.2106 13.3182 42.2277C13.3755 42.285 14.1082 40.6992 14.3258 40.0351C14.7781 38.6611 14.8868 37.894 14.9613 35.3178C15.0357 32.9248 15.1788 30.2684 15.3105 28.9917C15.3219 28.8658 15.7055 30.1196 15.8429 30.7378ZM29.0445 36.7433C29.0445 40.6305 29.0216 42.9376 28.9873 42.9605C28.9587 42.9777 28.764 43.0063 28.5579 43.0292L28.1858 43.0636V36.875V30.6806L28.3461 30.6462C28.432 30.6291 28.5293 30.6062 28.5579 30.5947C28.5923 30.5833 28.7125 30.5718 28.8327 30.5718L29.0445 30.5661V36.7433ZM27.2126 36.8921C27.2126 40.4473 27.1897 42.7029 27.161 42.7029C27.0637 42.7029 26.8576 42.3537 26.7374 41.9987C26.5771 41.495 26.537 40.0294 26.6573 38.9817C26.7546 38.1573 26.7889 37.3158 26.766 36.52L26.7489 36.0334L26.5485 36.7204C26.1821 37.9856 25.3291 39.537 24.831 39.8462C24.5562 40.0122 24.1898 39.9893 23.915 39.7889C23.7948 39.7031 23.646 39.5771 23.5944 39.5199C23.2109 39.0848 23.228 38.0657 23.6402 37.2471C23.9036 36.7261 24.7795 35.5525 25.5638 34.6766L25.9531 34.2415V33.0965V31.9515L26.2565 31.6996C26.5599 31.4363 27.0866 31.0813 27.1668 31.0813C27.1897 31.0813 27.2126 33.6976 27.2126 36.8921ZM22.7185 42.1018C23.0334 42.1476 23.7433 42.2048 24.2986 42.2277L25.3062 42.2621L25.4092 42.6113C25.5695 43.138 26.0275 44.0025 26.3825 44.4433C26.5542 44.6608 26.6973 44.8498 26.6973 44.8727C26.6973 44.8898 26.2909 45.1131 25.7985 45.365C24.6879 45.9318 23.749 46.5443 23.0048 47.1912C22.4895 47.6435 21.3732 48.445 21.3274 48.4049C21.3216 48.3935 21.4075 48.2217 21.5277 48.0214C22.4609 46.4184 22.7128 44.4719 22.2033 42.6972C22.1289 42.4281 22.0487 42.159 22.0258 42.1075C21.9857 41.9987 21.9857 41.9987 22.7185 42.1018Z" fill="black"/>
</svg>
