<svg width="22" height="27" viewBox="0 0 22 27" fill="none" xmlns="http://www.w3.org/2000/svg">
<path d="M0.636719 22.4518V20.5214H3.21058V10.7407C3.21058 8.93903 3.74144 7.325 4.80316 5.89865C5.86488 4.47231 7.26442 3.57682 9.00178 3.21218V2.50437C9.00178 1.96815 9.18945 1.51236 9.56481 1.13701C9.94016 0.761652 10.396 0.573975 10.9322 0.573975C11.4684 0.573975 11.9242 0.761652 12.2995 1.13701C12.6749 1.51236 12.8626 1.96815 12.8626 2.50437V3.21218C14.5999 3.57682 15.9995 4.47231 17.0612 5.89865C18.1229 7.325 18.6538 8.93903 18.6538 10.7407V20.5214H21.2276V22.4518H0.636719ZM10.9322 26.3126C10.2244 26.3126 9.61843 26.0606 9.11438 25.5565C8.61033 25.0525 8.35831 24.4466 8.35831 23.7387H13.506C13.506 24.4466 13.254 25.0525 12.75 25.5565C12.2459 26.0606 11.64 26.3126 10.9322 26.3126ZM5.14098 20.5214H16.7234V10.7407C16.7234 9.13207 16.1603 7.76471 15.0343 6.63864C13.9082 5.51258 12.5408 4.94954 10.9322 4.94954C9.32351 4.94954 7.95614 5.51258 6.83008 6.63864C5.70401 7.76471 5.14098 9.13207 5.14098 10.7407V20.5214Z" fill="#1C1B1F"/>
</svg>
