<svg width="23" height="23" viewBox="0 0 23 23" fill="none" xmlns="http://www.w3.org/2000/svg">
<path d="M21.0658 22.0778L13.1858 14.1978C12.5781 14.7109 11.8728 15.1127 11.0698 15.4032C10.2668 15.6935 9.41231 15.8387 8.5064 15.8387C6.30971 15.8387 4.45049 15.0773 2.92877 13.5545C1.40725 12.032 0.646484 10.187 0.646484 8.01945C0.646484 5.85193 1.40785 4.0068 2.93059 2.48406C4.45313 0.96132 6.3016 0.199951 8.47602 0.199951C10.6502 0.199951 12.4953 0.96132 14.0111 2.48406C15.5272 4.0068 16.2852 5.85294 16.2852 8.02249C16.2852 8.89822 16.1434 9.73788 15.8598 10.5415C15.5762 11.3449 15.1643 12.0843 14.624 12.7597L22.5243 20.6193L21.0658 22.0778ZM8.48604 13.8128C10.0898 13.8128 11.4529 13.2473 12.5754 12.1164C13.698 10.9854 14.2594 9.61978 14.2594 8.01945C14.2594 6.41913 13.698 5.05339 12.5754 3.92222C11.4529 2.79126 10.0898 2.22578 8.48604 2.22578C6.87113 2.22578 5.4984 2.79126 4.36784 3.92222C3.23749 5.05339 2.67231 6.41913 2.67231 8.01945C2.67231 9.61978 3.23749 10.9854 4.36784 12.1164C5.4984 13.2473 6.87113 13.8128 8.48604 13.8128Z" fill="#1C1B1F"/>
</svg>
