<svg width="28" height="28" viewBox="0 0 28 28" fill="none" xmlns="http://www.w3.org/2000/svg">
<mask id="mask0_226_47" style="mask-type:alpha" maskUnits="userSpaceOnUse" x="0" y="0" width="28" height="28">
<rect x="17.7607" y="0.312988" width="20.1465" height="20.1465" transform="rotate(60 17.7607 0.312988)" fill="black"/>
</mask>
<g mask="url(#mask0_226_47)">
<path d="M5.64947 16.271L7.8079 14.6371C7.77754 14.4446 7.76455 14.2542 7.76891 14.0659C7.77328 13.8776 7.78546 13.6888 7.80544 13.4996L5.64806 11.8615L7.94696 7.86865L10.4453 8.92215C10.5232 8.86107 10.6014 8.80779 10.6802 8.76232L11.1709 8.47901C11.2497 8.43354 11.3349 8.39238 11.4267 8.35553L11.7636 5.66513L16.3709 5.67064L16.7109 8.35803C16.8847 8.43535 17.0561 8.52222 17.2248 8.61865C17.3936 8.71508 17.5502 8.8185 17.6947 8.92892L20.1889 7.87661L22.4974 11.875L20.339 13.5089C20.3693 13.7013 20.3823 13.8917 20.378 14.08C20.3736 14.2683 20.3614 14.4571 20.3414 14.6464L22.4988 16.2845L20.1999 20.2773L17.7015 19.2238C17.6237 19.2849 17.5454 19.3381 17.4667 19.3836L16.976 19.6669C16.8972 19.7124 16.8084 19.7475 16.7096 19.7722L16.3728 22.4626L11.7655 22.4571L11.436 19.7879C11.2621 19.7106 11.0908 19.6237 10.922 19.5273C10.7533 19.4309 10.5967 19.3274 10.4521 19.217L7.95792 20.2693L5.64947 16.271ZM7.83793 16.7037L8.66687 18.1395L10.7403 17.2817C11.054 17.6013 11.3975 17.8675 11.7707 18.0801C12.1439 18.2928 12.5407 18.4555 12.9611 18.5681L13.2548 20.7976L14.8999 20.7929L15.1788 18.5478C15.3834 18.5105 15.5866 18.4497 15.7884 18.3655C15.9902 18.2813 16.188 18.1833 16.3819 18.0713C16.5757 17.9594 16.7596 17.8371 16.9334 17.7044C17.1072 17.5718 17.2614 17.4262 17.3961 17.2677L19.4798 18.1486L20.3064 16.7263L18.5043 15.3678C18.6291 14.9403 18.6927 14.5118 18.6951 14.0823C18.6975 13.6528 18.6388 13.2223 18.5189 12.7907L20.3089 11.4422L19.48 10.0064L17.4066 10.8642C17.0928 10.5446 16.7494 10.2785 16.3762 10.0658C16.003 9.85314 15.6062 9.69049 15.1857 9.57783L14.8921 7.34836L13.247 7.35308L12.9862 9.58762C12.7695 9.63197 12.5633 9.69449 12.3675 9.77519C12.1718 9.85589 11.971 9.9557 11.765 10.0746C11.5711 10.1865 11.3903 10.3071 11.2226 10.4362C11.0548 10.5654 10.8976 10.7127 10.7508 10.8783L8.66706 9.99731L7.84043 11.4196L9.64255 12.7782C9.51778 13.2056 9.45418 13.6341 9.45175 14.0636C9.44932 14.4931 9.50807 14.9237 9.628 15.3552L7.83793 16.7037ZM11.55 15.5783C11.9557 16.2811 12.5504 16.7374 13.334 16.9474C14.1175 17.1573 14.8607 17.0595 15.5634 16.6537C16.2662 16.248 16.7225 15.6533 16.9325 14.8698C17.1424 14.0862 17.0446 13.343 16.6388 12.6403C16.2261 11.9254 15.6297 11.4661 14.8496 11.2622C14.0696 11.0583 13.3281 11.1592 12.6254 11.5649C11.9227 11.9706 11.4646 12.5623 11.2511 13.3398C11.0377 14.1173 11.1373 14.8635 11.55 15.5783Z" fill="black"/>
<rect x="8.7998" y="8.92383" width="14" height="4" transform="rotate(27.9788 8.7998 8.92383)" fill="black"/>
<rect x="16.0322" y="7.10413" width="14" height="4" transform="rotate(90.0325 16.0322 7.10413)" fill="black"/>
<rect x="21.2139" y="12.1218" width="14" height="4" transform="rotate(147.979 21.2139 12.1218)" fill="black"/>
<rect x="17.0518" y="18.9691" width="10" height="6" transform="rotate(-152.021 17.0518 18.9691)" fill="black"/>
<rect x="14.3467" y="19.7971" width="6" height="10" transform="rotate(-152.021 14.3467 19.7971)" fill="black"/>
<circle cx="14.0427" cy="13.974" r="3" transform="rotate(27.9788 14.0427 13.974)" fill="white"/>
</g>
</svg>
