<svg width="21" height="21" viewBox="0 0 21 21" fill="none" xmlns="http://www.w3.org/2000/svg">
<mask id="mask0_226_46" style="mask-type:alpha" maskUnits="userSpaceOnUse" x="0" y="0" width="21" height="21">
<rect width="20.1465" height="20.1465" fill="#D9D9D9"/>
</mask>
<g mask="url(#mask0_226_46)">
<path d="M7.76461 18.4677L7.42883 15.7815C7.24695 15.7115 7.07557 15.6276 6.91468 15.5297C6.75379 15.4317 6.59639 15.3268 6.44249 15.2149L3.94517 16.2642L1.63672 12.2768L3.79827 10.6399C3.78428 10.542 3.77728 10.4476 3.77728 10.3566V9.79001C3.77728 9.69907 3.78428 9.60464 3.79827 9.5067L1.63672 7.8698L3.94517 3.88248L6.44249 4.93177C6.59639 4.81985 6.75728 4.71492 6.92517 4.61698C7.09306 4.51905 7.26095 4.43511 7.42883 4.36515L7.76461 1.67896H12.3815L12.7173 4.36515C12.8992 4.43511 13.0705 4.51905 13.2314 4.61698C13.3923 4.71492 13.5497 4.81985 13.7036 4.93177L16.2009 3.88248L18.5094 7.8698L16.3478 9.5067C16.3618 9.60464 16.3688 9.69907 16.3688 9.79001V10.3566C16.3688 10.4476 16.3548 10.542 16.3269 10.6399L18.4884 12.2768L16.18 16.2642L13.7036 15.2149C13.5497 15.3268 13.3888 15.4317 13.2209 15.5297C13.0531 15.6276 12.8852 15.7115 12.7173 15.7815L12.3815 18.4677H7.76461ZM9.23362 16.7888H10.8915L11.1853 14.5643C11.619 14.4524 12.0213 14.288 12.392 14.0711C12.7628 13.8543 13.102 13.592 13.4098 13.2842L15.4874 14.1446L16.3059 12.7176L14.5011 11.3535C14.571 11.1576 14.62 10.9512 14.648 10.7344C14.676 10.5175 14.69 10.2972 14.69 10.0733C14.69 9.84947 14.676 9.62912 14.648 9.41227C14.62 9.19541 14.571 8.98905 14.5011 8.79318L16.3059 7.4291L15.4874 6.00205L13.4098 6.88346C13.102 6.56168 12.7628 6.29236 12.392 6.07551C12.0213 5.85865 11.619 5.69426 11.1853 5.58234L10.9125 3.35783H9.25461L8.96081 5.58234C8.5271 5.69426 8.12487 5.85865 7.75411 6.07551C7.38336 6.29236 7.04409 6.55468 6.7363 6.86248L4.65869 6.00205L3.84024 7.4291L5.64503 8.7722C5.57508 8.98206 5.52611 9.19191 5.49813 9.40177C5.47015 9.61163 5.45616 9.83548 5.45616 10.0733C5.45616 10.2972 5.47015 10.514 5.49813 10.7239C5.52611 10.9337 5.57508 11.1436 5.64503 11.3535L3.84024 12.7176L4.65869 14.1446L6.7363 13.2632C7.04409 13.585 7.38336 13.8543 7.75411 14.0711C8.12487 14.288 8.5271 14.4524 8.96081 14.5643L9.23362 16.7888ZM10.115 13.0114C10.9265 13.0114 11.619 12.7245 12.1926 12.1509C12.7663 11.5773 13.0531 10.8848 13.0531 10.0733C13.0531 9.26187 12.7663 8.56933 12.1926 7.99572C11.619 7.4221 10.9265 7.13529 10.115 7.13529C9.28958 7.13529 8.59355 7.4221 8.02693 7.99572C7.46031 8.56933 7.177 9.26187 7.177 10.0733C7.177 10.8848 7.46031 11.5773 8.02693 12.1509C8.59355 12.7245 9.28958 13.0114 10.115 13.0114Z" fill="#1C1B1F"/>
</g>
</svg>
