<svg width="18" height="18" viewBox="0 0 18 18" fill="none" xmlns="http://www.w3.org/2000/svg">
<path d="M6.76461 17.4677L6.42883 14.7815C6.24695 14.7115 6.07557 14.6276 5.91468 14.5297C5.75379 14.4317 5.59639 14.3268 5.44249 14.2149L2.94517 15.2642L0.636719 11.2768L2.79827 9.63994C2.78428 9.54201 2.77728 9.44757 2.77728 9.35663V8.79001C2.77728 8.69907 2.78428 8.60464 2.79827 8.5067L0.636719 6.8698L2.94517 2.88248L5.44249 3.93177C5.59639 3.81985 5.75728 3.71492 5.92517 3.61698C6.09306 3.51905 6.26095 3.43511 6.42883 3.36515L6.76461 0.678955H11.3815L11.7173 3.36515C11.8992 3.43511 12.0705 3.51905 12.2314 3.61698C12.3923 3.71492 12.5497 3.81985 12.7036 3.93177L15.2009 2.88248L17.5094 6.8698L15.3478 8.5067C15.3618 8.60464 15.3688 8.69907 15.3688 8.79001V9.35663C15.3688 9.44757 15.3548 9.54201 15.3269 9.63994L17.4884 11.2768L15.18 15.2642L12.7036 14.2149C12.5497 14.3268 12.3888 14.4317 12.2209 14.5297C12.0531 14.6276 11.8852 14.7115 11.7173 14.7815L11.3815 17.4677H6.76461ZM8.23362 15.7888H9.89151L10.1853 13.5643C10.619 13.4524 11.0213 13.288 11.392 13.0711C11.7628 12.8543 12.102 12.592 12.4098 12.2842L14.4874 13.1446L15.3059 11.7176L13.5011 10.3535C13.571 10.1576 13.62 9.95123 13.648 9.73438C13.676 9.51753 13.69 9.29717 13.69 9.07332C13.69 8.84947 13.676 8.62912 13.648 8.41227C13.62 8.19541 13.571 7.98905 13.5011 7.79318L15.3059 6.4291L14.4874 5.00205L12.4098 5.88346C12.102 5.56168 11.7628 5.29236 11.392 5.07551C11.0213 4.85865 10.619 4.69426 10.1853 4.58234L9.9125 2.35783H8.25461L7.96081 4.58234C7.5271 4.69426 7.12487 4.85865 6.75411 5.07551C6.38336 5.29236 6.04409 5.55468 5.7363 5.86248L3.65869 5.00205L2.84024 6.4291L4.64503 7.7722C4.57508 7.98206 4.52611 8.19191 4.49813 8.40177C4.47015 8.61163 4.45616 8.83548 4.45616 9.07332C4.45616 9.29717 4.47015 9.51403 4.49813 9.72389C4.52611 9.93375 4.57508 10.1436 4.64503 10.3535L2.84024 11.7176L3.65869 13.1446L5.7363 12.2632C6.04409 12.585 6.38336 12.8543 6.75411 13.0711C7.12487 13.288 7.5271 13.4524 7.96081 13.5643L8.23362 15.7888ZM9.11503 12.0114C9.92649 12.0114 10.619 11.7245 11.1926 11.1509C11.7663 10.5773 12.0531 9.88478 12.0531 9.07332C12.0531 8.26187 11.7663 7.56933 11.1926 6.99572C10.619 6.4221 9.92649 6.13529 9.11503 6.13529C8.28958 6.13529 7.59355 6.4221 7.02693 6.99572C6.46031 7.56933 6.177 8.26187 6.177 9.07332C6.177 9.88478 6.46031 10.5773 7.02693 11.1509C7.59355 11.7245 8.28958 12.0114 9.11503 12.0114Z" fill="#1C1B1F"/>
</svg>
